<?xml version="1.0" encoding="UTF-8" standalone="no"?>
<!-- Created with Inkscape (http://www.inkscape.org/) -->

<svg
   version="1.1"
   id="svg2"
   width="980"
   height="980"
   viewBox="0 0 980 980">
   <defs
      id="defs6" />
   <g
      id="g8">
      <path
         d="M 465,979.33584 C 316.29805,971.38176 180.50634,897.53418 92.942695,777 26.952408,686.16224 -6.0026987,572.71079 1.0065244,460.5 9.8849752,318.3647 77.599756,190.38066 190.5,102.34864 291.94083,23.251892 422.95895,-12.304094 552.5,4.1082786 645.43881,15.883283 731.92339,53.833116 805.5,115.12585 818.42763,125.89517 845.67486,152.58964 857.42759,166 955.78982,278.23545 997.39239,424.34897 972.95214,571.73686 950.847,705.04277 872.91194,824.37124 758.81535,899.60749 672.99822,956.19601 567.51521,984.81939 465,979.33584 Z M 373.23274,835.25 l 0.35347,-48.75 2.68443,-10 c 3.30922,-12.32744 11.07817,-28.16757 17.42983,-35.5377 2.62485,-3.04574 7.62952,-7.99574 11.1215,-11 l 6.34906,-5.4623 -9.83551,-1.24669 C 365.38785,718.69681 334.71231,710.9187 307.10226,699.35945 258.22782,678.89763 222.76777,640.57685 206.11463,590.22468 195.6651,558.62964 191.35342,526.47825 192.2862,487.10877 c 0.59677,-25.18727 2.6563,-38.14878 9.15381,-57.60877 7.21499,-21.60882 20.40951,-44.41684 34.7464,-60.06252 l 3.72268,-4.06252 -2.8807,-8.9579 c -10.1883,-31.68177 -8.82304,-69.16034 3.83586,-105.3005 3.53336,-10.08745 3.81473,-10.5358 7.15504,-11.40137 5.07305,-1.31455 25.77358,0.80557 36.76846,3.76579 21.86518,5.8869 59.15137,24.28955 84.65807,41.78311 l 4.94581,3.39204 11.05419,-2.84111 C 435.45036,272.96299 494.24473,269.65895 550,276.56765 c 12.90794,1.59944 41.20426,7.02567 53.5,10.2594 l 7,1.84097 7,-4.67513 c 29.90031,-19.96972 63.49929,-35.67309 90.98636,-42.52488 9.61328,-2.39633 12.17537,-2.66076 20.5,-2.11574 7.18492,0.47039 9.81116,1.0283 10.72913,2.27922 1.802,2.45563 6.89677,18.39798 9.705,30.36851 3.79587,16.18047 4.92691,28.30144 4.27992,45.86642 -0.57344,15.56807 -3.01137,29.60405 -7.12296,41.00931 -0.8676,2.40665 -1.57745,4.93902 -1.57745,5.6275 0,0.68848 2.78057,4.5694 6.17905,8.62428 31.15894,37.1771 44.18809,81.46677 40.85353,138.87249 -4.15263,71.48923 -24.58277,120.93967 -64.53258,156.19881 -32.9879,29.11465 -84.39071,48.42186 -147.85041,55.5335 l -6.85042,0.76769 6.58004,5.33261 c 11.86151,9.61281 21.69586,24.28938 27.08152,40.41585 4.81464,14.41664 5.52695,23.42799 5.53337,70.00154 0.003,23.5125 0.19499,42.75 0.42609,42.75 0.23111,0 5.51861,-1.7451 11.75,-3.878 C 708.67879,850.19617 782.9569,792.73017 832.42968,718 869.03129,662.71212 890.48527,604.67901 898.56983,539.09056 902.07729,510.63528 902.0607,469.43588 898.53011,440.422 883.87014,319.94846 817.15933,212.57506 715.40737,145.67948 643.23414,98.230071 558.56021,75.171907 470.85257,79.083008 381.01273,83.089189 295.25694,116.37084 226.5,173.91574 158.2403,231.04448 110.64546,307.56075 90.01526,393.33664 82.013884,426.60463 78.896637,453.52664 78.880692,489.5 78.858977,538.48991 84.887366,576.11793 99.948319,621 137.41066,732.63886 220.38916,822.30929 329.5,869.06424 c 11.47526,4.91725 39.17633,14.80708 41.68964,14.88403 1.55911,0.0477 1.71695,-3.7144 2.0431,-48.69827 z"
         id="path293"
      />
   </g>
</svg>