<?xml version="1.0" encoding="UTF-8" standalone="no"?>
<!-- Created with Inkscape (http://www.inkscape.org/) -->

<svg
   version="1.1"
   id="svg875"
   width="980"
   height="980"
   viewBox="0 0 980 980"
>
   <defs
      id="defs879" />
   <g
      id="layer1"
   >
      <path
         style="display:inline"
         d="M 89.5,979.33084 C 47.043205,973.96341 12.047694,942.30676 2.3547995,900.5 0.56472281,892.77916 0.5,878.45485 0.5,490 0.5,101.54515 0.56472281,87.220842 2.3547995,79.5 6.778273,60.420964 15.9714,43.907388 29.952599,29.926189 43.337776,16.541012 59.369176,7.4170376 77.725681,2.7370235 L 86.5,0.5 h 404 404 l 10,2.7548922 c 35.86418,9.8801958 63.50904,38.1739018 72.76298,74.4707888 L 979.5,86.5 V 490 893.5 l -2.23702,8.77432 c -4.73479,18.57135 -13.96559,34.66936 -27.61954,48.16701 -13.54563,13.39057 -27.29365,21.35243 -45.63196,26.42678 L 894.5,979.5 l -401,0.10505 c -220.55,0.0578 -402.35,-0.0656 -404,-0.27421 z M 780,735 V 608 H 755.5 731 V 710.50189 813.00377 L 469.75,812.75189 208.5,812.5 208.24528,710.23223 207.99056,607.96446 183.74528,608.23223 159.5,608.5 159.24277,734 c -0.14148,69.025 -0.0431,126.0625 0.21861,126.75 0.37927,0.99629 63.40258,1.25 310.50724,1.25 H 780 Z M 636.5,695 V 660.5 H 463 289.5 l -0.26378,33.49289 c -0.14508,18.42109 -0.0462,34.05986 0.2197,34.75283 0.38676,1.00789 35.14775,1.20935 173.76378,1.00711 L 636.5,729.5 Z m 0.46903,-57.25 c 5.70012,-26.37188 13.01424,-62.10006 12.76407,-62.35023 -0.97577,-0.97577 -338.17089,-71.3441 -338.73929,-70.69057 -1.13469,1.30462 -14.39938,66.21857 -13.67857,66.93937 0.58139,0.5814 51.07605,11.29784 199.68476,42.37895 21.175,4.4287 60.55,12.71588 87.5,18.41596 26.95,5.70008 49.52521,10.40715 50.16714,10.46015 0.64192,0.053 1.67777,-2.26613 2.30189,-5.15363 z m 35.02471,-116.55259 c 7.27893,-15.56642 13.07058,-28.4343 12.87034,-28.59529 C 684.66384,492.44113 650.075,476.30196 608,456.7373 565.925,437.17263 497.525,405.33181 456,385.9799 414.475,366.628 378.20814,349.77184 375.40699,348.52177 l -5.09302,-2.27286 -14.15698,30.72393 c -7.78635,16.89817 -14.14858,31.12966 -14.13831,31.62555 0.0103,0.49588 70.54777,33.78249 156.75,73.97023 L 655.5,555.63724 l 1.62967,-3.06862 c 0.89631,-1.68774 7.58515,-15.80478 14.86407,-31.37121 z M 718.44755,449 c 11.29321,-13.475 20.53746,-24.76411 20.54278,-25.08692 C 739.00448,423.05421 474.15139,202.5 473.10586,202.5 c -1.24674,0 -44.30956,51.4127 -43.92303,52.4397 C 429.35727,255.40319 489.125,305.50076 562,366.26763 685.53729,469.27929 694.61548,476.64283 696.20722,475.12642 697.14619,474.23189 707.15434,462.475 718.44755,449 Z m 61.55082,-59.16404 c 16.51266,-12.29108 26.89936,-20.66008 26.6022,-21.43448 C 805.99548,366.82464 601.02505,91 600.45836,91 c -0.22564,0 -12.80224,9.25799 -27.94801,20.57332 -17.6031,13.15118 -27.28752,20.99782 -26.84412,21.75 0.54878,0.93095 127.08017,171.38516 192.57735,259.42668 7.05808,9.4875 13.24512,17.25 13.74898,17.25 0.50385,0 13.10647,-9.07382 28.00581,-20.16404 z"
         id="path890" />
   </g>
</svg>